<?xml version="1.0" encoding="UTF-8"?>
<svg version="1.1" viewBox="0 0 1600 1600" width="1280" height="1280" xmlns="http://www.w3.org/2000/svg">
<path transform="translate(712)" d="m0 0h150v12c0.952-0.00524 1.9-0.0105 2.89-0.0159 24.4-0.122 48.7 0.24 73.1 1.02v12h62v12l50 1v12h25v12c1.71-0.0206 3.42-0.0412 5.19-0.0625 6.65-0.00792 13.2 0.487 19.8 1.06v12h37c0.33 3.96 0.66 7.92 1 12 7.92 0.33 15.8 0.66 24 1v12h25c0.33 3.96 0.66 7.92 1 12 3.96 0.33 7.92 0.66 12 1v12h25v12l5.19-0.0625c6.65-0.00792 13.2 0.487 19.8 1.06v12h13v12c2.6-0.0309 2.6-0.0309 5.25-0.0625 6.3-0.0075 12.5 0.465 18.8 1.06v12h13v13h12v12h13v13h12v12h13v13h13v12h12v13h12v12h13v13h12v12h13v25h12c0.33 3.96 0.66 7.92 1 12 3.96 0.33 7.92 0.66 12 1v24h12v13h13v25h12c0.729 8.38 1.1 16.6 1 25h12v25h12c0.729 8.38 1.1 16.6 1 25h12v25h12v25h13v38h12c0.33 12.2 0.66 24.4 1 37h12v50h12c0.872 23.8 1.09 47.6 1.06 71.4-8.56e-4 0.709-0.00171 1.42-0.00259 2.15-0.0114 8.83-0.0324 17.7-0.0599 26.5h12v62h-12v13h12v25h-12c-0.33 24.8-0.66 49.5-1 75h-12v62h-12c-0.33 16.5-0.66 33-1 50h-12v38h-12c-0.33 12.2-0.66 24.4-1 37h-12v13h-12c0.0206 1.65 0.0412 3.3 0.0625 5 0.0119 10.7-0.576 21.3-1.06 32h-12v13h-12c0.0206 1.71 0.0412 3.42 0.0625 5.19 0.00792 6.65-0.487 13.2-1.06 19.8h-12v25h-13v13h-12v24h-13v13h-12v13h-12v12h-13v13h-12v12h-13v25h-13v12h-12v13h-25v13h-12v12h-13v12c-3.96 0.33-7.92 0.66-12 1-0.33 3.96-0.66 7.92-1 12h-12v12h-13v13h-25v12h-12v13h-25v12c-8.38 0.729-16.6 1.1-25 1v12h-25v12c-8.38 0.729-16.6 1.1-25 1v12h-25v12c-12.2 0.33-24.4 0.66-37 1v12h-38v12l-50 1v12h-62v12c-21 1.11-42 1.11-63 1v12h-125v-12c-0.985 0.00524-1.97 0.0105-2.98 0.0159-20 0.0971-40-0.0177-60-1.02v-12h-50v-12c-12.2-0.33-24.4-0.66-37-1v-12h-37v-12c-1.63 0.0206-3.26 0.0412-4.94 0.0625-11 0.0123-22-0.582-33.1-1.06v-12h-25v-12c-1.65 0.0206-3.3 0.0412-5 0.0625-10.7 0.0119-21.3-0.576-32-1.06v-12h-13v-12l-5.19 0.0625c-6.65 0.00792-13.2-0.487-19.8-1.06v-12h-25v-13h-25v-12h-13v-12h-12v-13h-25v-13h-12v-12h-13v-13h-13v-12h-12v-12l-5.94 0.0625c-2.02 0.0213-4.04 0.00994-6.06-0.0625-1-1-1-1-1.1-3.72 0.0326-3.09 0.0651-6.18 0.0977-9.28h-12v-12h-12v-13h-13v-13h-12v-12h-13v-25h-13v-12h-12v-13h-12c-0.729-8.38-1.1-16.6-1-25h-12v-13h-12c-0.767-8.05-1.1-15.9-1-24h-12v-25h-12c-0.729-8.38-1.1-16.6-1-25h-12v-26h-12l-1-24-12-1v-49h-12l-1-25-12-1v-62h-12c-0.791-25-1.14-50-1-75h-12v-163h12c-0.0174-1.85-0.0174-1.85-0.0352-3.75-0.138-23.4 0.511-46.8 1.04-70.3h12v-50h12l-0.0625-4.94c-0.0123-11 0.582-22 1.06-33.1h12v-25h12l1-37h12v-25h12l-0.0625-5.75c-0.00711-6.47 0.442-12.8 1.06-19.2h12v-25l12-1 1-12h12v-25h12l-0.0625-5.19c-0.00792-6.65 0.487-13.2 1.06-19.8h12v-13h12v-12h13v-25h13v-12h12v-13h12l-0.0625-5.94c-0.0213-2.02-0.00994-4.04 0.0625-6.06 1-1 1-1 3.72-1.1 3.09 0.0326 6.18 0.0651 9.28 0.0977v-12h12l-0.0625-5.19c-0.00792-6.65 0.487-13.2 1.06-19.8h12v-12c8.38-0.729 16.6-1.1 25-1v-12h12v-12h13v-13h13v-12h12v-13h25v-12h13v-13h24v-12c8.38-0.729 16.6-1.1 25-1v-12h25v-12c8.38-0.729 16.6-1.1 25-1v-12h25v-12l25-1c0.33-3.96 0.66-7.92 1-12h37v-12c26.3-1.15 26.3-1.15 38-1v-12h49v-12c6.66-0.146 13.3-0.288 20-0.427 2.25-0.0476 4.51-0.096 6.76-0.146 16.1-0.352 32.2-0.49 48.2-0.427v-12zm-37 100v12c-1.03-0.00524-2.05-0.0105-3.11-0.0159-19.7-0.0916-39.3-0.0816-58.9 1.02v12h-38v12c-1.65-0.0116-3.31-0.0232-5.01-0.0352-11.1-0.0536-22-0.0797-33 1.04v12h-25v12c-1.72-0.0116-3.44-0.0232-5.21-0.0352-2.24-0.00938-4.48-0.0185-6.72-0.0273-1.14-0.00838-2.27-0.0168-3.44-0.0254l-3.27-0.00977c-1-0.00524-2-0.0105-3.03-0.0159-2.28-0.148-2.28-0.148-3.32 1.11v12h-25v12c-1.73-0.0206-3.46-0.0412-5.25-0.0625-6.3-0.0075-12.5 0.465-18.8 1.06v12h-13v12h-25v13h-13v12c-1.73-0.0206-3.46-0.0412-5.25-0.0625-6.3-0.0075-12.5 0.465-18.8 1.06v12h-13v12l-9.28-0.0977c-2.64-0.215-2.64-0.215-3.72 1.1-0.0724 2.02-0.0838 4.04-0.0625 6.06l0.0625 5.94h-12v12h-13v13h-12v12l-9.28-0.0977c-2.64-0.215-2.64-0.215-3.72 1.1-0.0724 2.02-0.0838 4.04-0.0625 6.06l0.0625 5.94h-12v12l-9.28-0.0977c-2.64-0.215-2.64-0.215-3.72 1.1-0.0724 2.02-0.0838 4.04-0.0625 6.06l0.0625 5.94h-12v13h-12c-0.767 8.05-1.1 15.9-1 24h-12v13h-12c-0.808 8.38-1.09 16.6-1 25h-12v25h-13v13h-12v25h-12c-0.811 8.45-1.13 16.8-1.06 25.2l0.0137 3.45c0.0116 2.77 0.0296 5.53 0.0488 8.3h-12v25h-12c-0.811 8.45-1.13 16.8-1.06 25.2l0.0137 3.45c0.0116 2.77 0.0296 5.53 0.0488 8.3h-12v50h-12c-1.03 11-1.12 21.8-1.06 32.8 0.00503 1.77 0.00959 3.54 0.0137 5.31 0.0109 4.29 0.0281 8.58 0.0488 12.9h-12v237h12c-0.00524 1.05-0.0105 2.11-0.0159 3.19-0.0183 3.97-0.0297 7.94-0.0391 11.9-0.00498 1.71-0.0118 3.41-0.0205 5.12-0.0499 10 0.142 19.8 1.08 29.8h12v38h12c-0.00524 1.06-0.0105 2.12-0.0159 3.21-0.0183 3.98-0.0297 7.96-0.0391 11.9-0.00498 1.71-0.0118 3.43-0.0205 5.14-0.0479 9.64 0.0826 19.1 1.08 28.7h12v25h12l-0.0625 5.75c-0.00711 6.47 0.442 12.8 1.06 19.2h12v25h12l-0.0625 5.75c-0.00711 6.47 0.442 12.8 1.06 19.2h12v13h12c-0.0326 3.09-0.0651 6.18-0.0977 9.28-0.215 2.64-0.215 2.64 1.1 3.72h12v24h12v13h13v13h12v12h13v25h13v12h12v13h13v12c8.05 0.767 15.9 1.1 24 1v12h13v13h12v12h13v13h13v12h24v12c1.04 1.26 1.04 1.26 3.32 1.11 1-0.00524 2-0.0105 3.03-0.0159l6.71-0.0352 3.46-0.0137c2.83-0.0118 5.65-0.0298 8.48-0.0488v12h13v13h25v12h25v13h25v12h25v12c8.62 0.832 17.1 1.13 25.8 1.06 1.19-0.00451 2.37-0.00902 3.59-0.0137 2.89-0.0116 5.77-0.0296 8.66-0.0488v12h49v12c12.9 1.31 25.8 1.11 38.8 1.06 2.35-0.00502 4.7-0.00959 7.05-0.0137 5.71-0.0109 11.4-0.0281 17.1-0.0488v12h200v-12c2.08 0.00786 2.08 0.00786 4.19 0.0159 35.4 0.228 35.4 0.228 70.8-1.02v-12h37v-12c1.65 0.0116 3.31 0.0232 5.01 0.0352 11.1 0.0536 22 0.0797 33-1.04v-12h25v-12h25v-13h25v-12c1.9 0.0206 3.8 0.0412 5.75 0.0625 6.47 0.00711 12.8-0.442 19.2-1.06v-12h13v-12c1.73 0.0206 3.46 0.0412 5.25 0.0625 6.3 0.0075 12.5-0.465 18.8-1.06v-12h13v-12c1.9 0.0206 3.8 0.0412 5.75 0.0625 6.47 0.00711 12.8-0.442 19.2-1.06v-12h13v-12h12v-13h13v-12c1.73 0.0206 3.46 0.0412 5.25 0.0625 6.3 0.0075 12.5-0.465 18.8-1.06v-12h13v-13h12v-12h13v-25h13v-12h12v-13h13v-13h12v-24h12c1.31-1.09 1.31-1.09 1.1-3.72-0.0116-1.1-0.0232-2.2-0.0352-3.34-0.0206-1.96-0.0412-3.92-0.0625-5.94h12v-25h12c0.808-8.38 1.09-16.6 1-25h12v-25h13v-25h12v-37h12c1.27-1.05 1.27-1.05 1.11-3.41-0.00524-1.04-0.0105-2.08-0.0159-3.16-0.00322-1.12-0.00645-2.25-0.00977-3.41-0.00838-1.18-0.0168-2.37-0.0254-3.59-0.00451-1.19-0.00902-2.38-0.0137-3.6-0.0118-2.95-0.0298-5.89-0.0488-8.84h12v-49h12c1.31-12.9 1.11-25.8 1.06-38.8-0.00502-2.35-0.00959-4.7-0.0137-7.05-0.0109-5.71-0.0281-11.4-0.0488-17.1h12v-200h-12c0.00786-2.17 0.00786-2.17 0.0159-4.38 0.0182-5.42 0.0296-10.8 0.0391-16.3 5e-3 -2.34 0.0118-4.67 0.0205-7.01 0.0819-17.7 0.0819-17.7-1.08-35.3h-12v-49h-12c0.0116-1.79 0.0232-3.59 0.0352-5.43 0.00938-2.33 0.0185-4.67 0.0273-7 0.00838-1.18 0.0168-2.37 0.0254-3.59 0.00483-1.69 0.00483-1.69 0.00977-3.41 0.00786-1.56 0.00786-1.56 0.0159-3.16 0.16-2.36 0.16-2.36-1.11-3.41h-12v-37h-12v-25h-13v-25h-12c0.0206-1.9 0.0412-3.8 0.0625-5.75 0.00711-6.47-0.442-12.8-1.06-19.2h-12v-25h-12c0.0326-3.09 0.0651-6.18 0.0977-9.28 0.215-2.64 0.215-2.64-1.1-3.72h-12v-24h-12v-13h-13v-13h-12c0.0206-1.73 0.0412-3.46 0.0625-5.25 0.0075-6.3-0.465-12.5-1.06-18.8h-12v-13h-13v-12h-12v-13h-13v-12h-12v-13h-25v-13h-12v-12h-13v-13h-13v-12h-24v-12c-1.09-1.31-1.09-1.31-3.72-1.1-1.1 0.0116-2.2 0.0232-3.34 0.0352-2.94 0.0309-2.94 0.0309-5.94 0.0625v-12h-25v-13h-25v-12h-25v-13h-25v-12h-25v-12c-8.45-0.811-16.8-1.13-25.2-1.06-1.14 0.00451-2.28 0.00902-3.45 0.0137-2.77 0.0116-5.53 0.0296-8.3 0.0488v-12h-38v-12c-25-1.47-50-1.09-75-1v-12h-225z" fill="#000100"/>
<path transform="translate(487,713)" d="m0 0v12h25c0.33 3.96 0.66 7.92 1 12 3.96 0.33 7.92 0.66 12 1v12h12v75h-12v25h-12c0.0309 2.94 0.0309 2.94 0.0625 5.94 0.0213 2.02 0.00994 4.04-0.0625 6.06-1 1-1 1-3.72 1.1l-9.28-0.0977v12h-13v12h-62v-12h-37v-13h-13v-24h-12c-0.729-8.38-1.1-16.6-1-25h-12v-26h12c0.33-12.2 0.66-24.4 1-37h12v-12c3.96-0.33 7.92-0.66 12-1 0.33-3.96 0.66-7.92 1-12h12v-12c29.1-1.38 57.9-0.889 87 0z" fill="#000100"/>
<path transform="translate(1112,713)" d="m0 0h75v12h13v12c1.71-0.0206 3.42-0.0412 5.19-0.0625 6.65-0.00792 13.2 0.487 19.8 1.06v25h12v62h-12v25h-12c0.0309 2.94 0.0309 2.94 0.0625 5.94 0.0213 2.02 0.00994 4.04-0.0625 6.06-1 1-1 1-3.72 1.1l-9.28-0.0977v12h-13v12h-62v-12h-37v-13h-13v-12h-12c-0.795-16.7-1.13-33.3-1-50h-12v-12h12c-0.0206-1.63-0.0412-3.26-0.0625-4.94-0.0123-11 0.582-22 1.06-33.1h12v-12c3.96-0.33 7.92-0.66 12-1 0.33-3.96 0.66-7.92 1-12h24v-12z" fill="#000100"/>
<path transform="translate(762,713)" d="m0 0h75v12h13v12c1.71-0.0206 3.42-0.0412 5.19-0.0625 6.65-0.00792 13.2 0.487 19.8 1.06v12h12v75h-12v25h-12c0.0309 2.94 0.0309 2.94 0.0625 5.94 0.0213 2.02 0.00994 4.04-0.0625 6.06-1 1-1 1-3.72 1.1l-9.28-0.0977v12h-13v12h-62v-12h-25v-12c-2.57 0.0309-2.57 0.0309-5.19 0.0625-6.65 0.00792-13.2-0.487-19.8-1.06v-12h-12c-1.96-33.2-1.96-66.8 0-100h12v-12c3.96-0.33 7.92-0.66 12-1 0.33-3.96 0.66-7.92 1-12h24v-12z" fill="#000100"/>
</svg>
